<svg viewBox="0 0 1120 520" xmlns="http://www.w3.org/2000/svg" role="img" xmlns:c2pa="http://c2pa.org/manifest"><metadata><c2pa:manifest>AAAWgmp1bWIAAAAeanVtZGMycGEAEQAQgAAAqgA4m3EDYzJwYQAAABZcanVtYgAAAEdqdW1kYzJtYQARABCAAACqADibcQN1cm46YzJwYTo3YzdjODdjOS05OWI3LTQ5OTEtYTczMC0yNWQ4YzZjNzRiMGQAAAADl2p1bWIAAAApanVtZGMyYXMAEQAQgAAAqgA4m3EDYzJwYS5hc3NlcnRpb25zAAAAALxqdW1iAAAARGp1bWRjYm9yABEAEIAAAKoAOJtxE2MycGEuaW5ncmVkaWVudC52MwAAAAAYYzJzaNbHaJKVFJLcEk89vdk63KwAAABwY2JvcqNpZGM6Zm9ybWF0bWltYWdlL3N2Zyt4bWxqaW5zdGFuY2VJRHgseG1wOmlpZDpiM2UyOTMwOS1mMTM1LTRkNWYtYjdkZi02YzVkZWYwMzUzMTlscmVsYXRpb25zaGlwaHBhcmVudE9mAAAB4mp1bWIAAABBanVtZGNib3IAEQAQgAAAqgA4m3ETYzJwYS5hY3Rpb25zLnYyAAAAABhjMnNoBTiLeCDvJMspVVqpKw1k0wAAAZljYm9yomdhY3Rpb25zgqJmYWN0aW9ua2MycGEub3BlbmVkanBhcmFtZXRlcnOha2luZ3JlZGllbnRzgaJjdXJseC1zZWxmI2p1bWJmPWMycGEuYXNzZXJ0aW9ucy9jMnBhLmluZ3JlZGllbnQudjNkaGFzaFggHVZ3EuI5jUTAtvHx7eJqRk/oLP0GvM9g2We91yNsoOikZmFjdGlvbngdY29tLmFudGhyb3BpYy5jbGF1ZGUucHJvdmlkZWRqcGFyYW1ldGVyc6F4H2NvbS5hbnRocm9waWMub3JpZ2luLWNvbmZpZGVuY2VndW5rbm93bmtkZXNjcmlwdGlvbnhmQ2xhdWRlIHByb3ZpZGVkIHRoaXMgZmlsZSBhdCB0aGUgcmVxdWVzdCBvZiBhIHVzZXIgYW5kIG1heSBoYXZlIGNyZWF0ZWQgb3IgbW9kaWZpZWQgdGhlIGZpbGUgY29udGVudHMubXNvZnR3YXJlQWdlbnShZG5hbWVmQ2xhdWRlcmFsbEFjdGlvbnNJbmNsdWRlZPUAAADIanVtYgAAAEBqdW1kY2JvcgARABCAAACqADibcRNjMnBhLmhhc2guZGF0YQAAAAAYYzJzaJp23YVixSsa5IJemCFgAX8AAACAY2JvcqVjYWxnZnNoYTI1NmNwYWRNAAAAAAAAAAAAAAAAAGRoYXNoWCDJU2umBTLXxlH+gtZL9lFIcNxpCwb0VYiusW2ALeUomGRuYW1lbmp1bWJmIG1hbmlmZXN0amV4Y2x1c2lvbnOBomVzdGFydBiJZmxlbmd0aBkeBAAAAj5qdW1iAAAAJ2p1bWRjMmNsABEAEIAAAKoAOJtxA2MycGEuY2xhaW0udjIAAAACD2Nib3KlY2FsZ2ZzaGEyNTZpc2lnbmF0dXJleE1zZWxmI2p1bWJmPS9jMnBhL3VybjpjMnBhOjdjN2M4N2M5LTk5YjctNDk5MS1hNzMwLTI1ZDhjNmM3NGIwZC9jMnBhLnNpZ25hdHVyZWppbnN0YW5jZUlEeCx4bXA6aWlkOjQ2MzA4MGM3LWVhZjktNDYxYi05Zjk4LWZjNjk2Mzk3YTY2OHJjcmVhdGVkX2Fzc2VydGlvbnODomN1cmx4LXNlbGYjanVtYmY9YzJwYS5hc3NlcnRpb25zL2MycGEuaW5ncmVkaWVudC52M2RoYXNoWCAdVncS4jmNRMC28fHt4mpGT+gs/Qa8z2DZZ73XI2yg6KJjdXJseCpzZWxmI2p1bWJmPWMycGEuYXNzZXJ0aW9ucy9jMnBhLmFjdGlvbnMudjJkaGFzaFggARiKXhbKCEi/oPpxagLoaho5ma0ZMSntkLgiU3Na/ASiY3VybHgpc2VsZiNqdW1iZj1jMnBhLmFzc2VydGlvbnMvYzJwYS5oYXNoLmRhdGFkaGFzaFggQx2dSVkGPdii8Lrl6qALuoaY0Dbl0/MGOLRMGoisXnp0Y2xhaW1fZ2VuZXJhdG9yX2luZm+jZG5hbWVvQW50aHJvcGljIEZpbGVzZ3ZlcnNpb25lMS4wLjBrc3BlY1ZlcnNpb25lMi40LjAAABA4anVtYgAAAChqdW1kYzJjcwARABCAAACqADibcQNjMnBhLnNpZ25hdHVyZQAAABAIY2JvctKEWQISogEmGCFZAgowggIGMIIBjaADAgECAhRA5aAK7sI50L64g/oGQgU9Z1UTADAKBggqhkjOPQQDAzBJMRcwFQYDVQQKEw5BbnRocm9waWMsIFBCQzEuMCwGA1UEAxMlQW50aHJvcGljIENvbnRlbnQgQ3JlZGVudGlhbHMgUm9vdCBDQTAeFw0yNjA4MDcxODQzNTZaFw0yODA4MDYxOTQzNTZaMEQxFzAVBgNVBAoTDkFudGhyb3BpYywgUEJDMSkwJwYDVQQDEyBBbnRocm9waWMgQ2xhdWRlIENvbnRlbnQgU2lnbmluZzBZMBMGByqGSM49AgEGCCqGSM49AwEHA0IABJh6CmvLUBgFFNU0vUKlOVtE6djd17L5SuwX0LemFisBM3dkd/3cyjxFA3Qo5S46fX0/ihY0VZ7mfb9KF703t5OjWDBWMA4GA1UdDwEB/wQEAwIHgDAVBgNVHSUEDjAMBgorBgEEAYPoXgIBMAwGA1UdEwEB/wQCMAAwHwYDVR0jBBgwFoAUzlHiBIFOZFsj+OPEz5o+nMHXXMIwCgYIKoZIzj0EAwMDZwAwZAIwMXMdFJ4BetLLVY7ORuE9noqbbAZOZn/aArXyTwFAZfKrPzxF2vPoJNf1+UCdg1XGAjBwX1zd9WGqYkqmL5SFqw1QySjr1zJfpJM9+1rdDwSPLMOPOjKuiXjoU/pUUeG9RwmhY3BhZFkNngAAAAAAAAAAAAAAAAAAAAAAAAAAAAAAAAAAAAAAAAAAAAAAAAAAAAAAAAAAAAAAAAAAAAAAAAAAAAAAAAAAAAAAAAAAAAAAAAAAAAAAAAAAAAAAAAAAAAAAAAAAAAAAAAAAAAAAAAAAAAAAAAAAAAAAAAAAAAAAAAAAAAAAAAAAAAAAAAAAAAAAAAAAAAAAAAAAAAAAAAAAAAAAAAAAAAAAAAAAAAAAAAAAAAAAAAAAAAAAAAAAAAAAAAAAAAAAAAAAAAAAAAAAAAAAAAAAAAAAAAAAAAAAAAAAAAAAAAAAAAAAAAAAAAAAAAAAAAAAAAAAAAAAAAAAAAAAAAAAAAAAAAAAAAAAAAAAAAAAAAAAAAAAAAAAAAAAAAAAAAAAAAAAAAAAAAAAAAAAAAAAAAAAAAAAAAAAAAAAAAAAAAAAAAAAAAAAAAAAAAAAAAAAAAAAAAAAAAAAAAAAAAAAAAAAAAAAAAAAAAAAAAAAAAAAAAAAAAAAAAAAAAAAAAAAAAAAAAAAAAAAAAAAAAAAAAAAAAAAAAAAAAAAAAAAAAAAAAAAAAAAAAAAAAAAAAAAAAAAAAAAAAAAAAAAAAAAAAAAAAAAAAAAAAAAAAAAAAAAAAAAAAAAAAAAAAAAAAAAAAAAAAAAAAAAAAAAAAAAAAAAAAAAAAAAAAAAAAAAAAAAAAAAAAAAAAAAAAAAAAAAAAAAAAAAAAAAAAAAAAAAAAAAAAAAAAAAAAAAAAAAAAAAAAAAAAAAAAAAAAAAAAAAAAAAAAAAAAAAAAAAAAAAAAAAAAAAAAAAAAAAAAAAAAAAAAAAAAAAAAAAAAAAAAAAAAAAAAAAAAAAAAAAAAAAAAAAAAAAAAAAAAAAAAAAAAAAAAAAAAAAAAAAAAAAAAAAAAAAAAAAAAAAAAAAAAAAAAAAAAAAAAAAAAAAAAAAAAAAAAAAAAAAAAAAAAAAAAAAAAAAAAAAAAAAAAAAAAAAAAAAAAAAAAAAAAAAAAAAAAAAAAAAAAAAAAAAAAAAAAAAAAAAAAAAAAAAAAAAAAAAAAAAAAAAAAAAAAAAAAAAAAAAAAAAAAAAAAAAAAAAAAAAAAAAAAAAAAAAAAAAAAAAAAAAAAAAAAAAAAAAAAAAAAAAAAAAAAAAAAAAAAAAAAAAAAAAAAAAAAAAAAAAAAAAAAAAAAAAAAAAAAAAAAAAAAAAAAAAAAAAAAAAAAAAAAAAAAAAAAAAAAAAAAAAAAAAAAAAAAAAAAAAAAAAAAAAAAAAAAAAAAAAAAAAAAAAAAAAAAAAAAAAAAAAAAAAAAAAAAAAAAAAAAAAAAAAAAAAAAAAAAAAAAAAAAAAAAAAAAAAAAAAAAAAAAAAAAAAAAAAAAAAAAAAAAAAAAAAAAAAAAAAAAAAAAAAAAAAAAAAAAAAAAAAAAAAAAAAAAAAAAAAAAAAAAAAAAAAAAAAAAAAAAAAAAAAAAAAAAAAAAAAAAAAAAAAAAAAAAAAAAAAAAAAAAAAAAAAAAAAAAAAAAAAAAAAAAAAAAAAAAAAAAAAAAAAAAAAAAAAAAAAAAAAAAAAAAAAAAAAAAAAAAAAAAAAAAAAAAAAAAAAAAAAAAAAAAAAAAAAAAAAAAAAAAAAAAAAAAAAAAAAAAAAAAAAAAAAAAAAAAAAAAAAAAAAAAAAAAAAAAAAAAAAAAAAAAAAAAAAAAAAAAAAAAAAAAAAAAAAAAAAAAAAAAAAAAAAAAAAAAAAAAAAAAAAAAAAAAAAAAAAAAAAAAAAAAAAAAAAAAAAAAAAAAAAAAAAAAAAAAAAAAAAAAAAAAAAAAAAAAAAAAAAAAAAAAAAAAAAAAAAAAAAAAAAAAAAAAAAAAAAAAAAAAAAAAAAAAAAAAAAAAAAAAAAAAAAAAAAAAAAAAAAAAAAAAAAAAAAAAAAAAAAAAAAAAAAAAAAAAAAAAAAAAAAAAAAAAAAAAAAAAAAAAAAAAAAAAAAAAAAAAAAAAAAAAAAAAAAAAAAAAAAAAAAAAAAAAAAAAAAAAAAAAAAAAAAAAAAAAAAAAAAAAAAAAAAAAAAAAAAAAAAAAAAAAAAAAAAAAAAAAAAAAAAAAAAAAAAAAAAAAAAAAAAAAAAAAAAAAAAAAAAAAAAAAAAAAAAAAAAAAAAAAAAAAAAAAAAAAAAAAAAAAAAAAAAAAAAAAAAAAAAAAAAAAAAAAAAAAAAAAAAAAAAAAAAAAAAAAAAAAAAAAAAAAAAAAAAAAAAAAAAAAAAAAAAAAAAAAAAAAAAAAAAAAAAAAAAAAAAAAAAAAAAAAAAAAAAAAAAAAAAAAAAAAAAAAAAAAAAAAAAAAAAAAAAAAAAAAAAAAAAAAAAAAAAAAAAAAAAAAAAAAAAAAAAAAAAAAAAAAAAAAAAAAAAAAAAAAAAAAAAAAAAAAAAAAAAAAAAAAAAAAAAAAAAAAAAAAAAAAAAAAAAAAAAAAAAAAAAAAAAAAAAAAAAAAAAAAAAAAAAAAAAAAAAAAAAAAAAAAAAAAAAAAAAAAAAAAAAAAAAAAAAAAAAAAAAAAAAAAAAAAAAAAAAAAAAAAAAAAAAAAAAAAAAAAAAAAAAAAAAAAAAAAAAAAAAAAAAAAAAAAAAAAAAAAAAAAAAAAAAAAAAAAAAAAAAAAAAAAAAAAAAAAAAAAAAAAAAAAAAAAAAAAAAAAAAAAAAAAAAAAAAAAAAAAAAAAAAAAAAAAAAAAAAAAAAAAAAAAAAAAAAAAAAAAAAAAAAAAAAAAAAAAAAAAAAAAAAAAAAAAAAAAAAAAAAAAAAAAAAAAAAAAAAAAAAAAAAAAAAAAAAAAAAAAAAAAAAAAAAAAAAAAAAAAAAAAAAAAAAAAAAAAAAAAAAAAAAAAAAAAAAAAAAAAAAAAAAAAAAAAAAAAAAAAAAAAAAAAAAAAAAAAAAAAAAAAAAAAAAAAAAAAAAAAAAAAAAAAAAAAAAAAAAAAAAAAAAAAAAAAAAAAAAAAAAAAAAAAAAAAAAAAAAAAAAAAAAAAAAAAAAAAAAAAAAAAAAAAAAAAAAAAAAAAAAAAAAAAAAAAAAAAAAAAAAAAAAAAAAAAAAAAAAAAAAAAAAAAAAAAAAAAAAAAAAAAAAAAAAAAAAAAAAAAAAAAAAAAAAAAAAAAAAAAAAAAAAAAAAAAAAAAAAAAAAAAAAAAAAAAAAAAAAAAAAAAAAAAAAAAAAAAAAAAAAAAAAAAAAAAAAAAAAAAAAAAAAAAAAAAAAAAAAAAAAAAAAAAAAAAAAAAAAAAAAAAAAAAAAAAAAAAAAAAAAAAAAAAAAAAAAAAAAAAAAAAAAAAAAAAAAAAAAAAAAAAAAAAAAAAAAAAAAAAAAAAAAAAAAAAAAAAAAAAAAAAAAAAAAAAAAAAAAAAAAAAAAAAAAAAAAAAAAAAAAAAAAAAAAAAAAAAAAAAAAAAAAAAAAAAAAAAAAAAAAAAAAAAAAAAAAAAAAAAAAAAAAAAAAAAAAAAAAAAAAAAAAAAAAAAAAAAAAAAAAAAAAAAAAAAAAAAAAAAAAAAAAAAAAAAAAAAAAAAAAAAAAAAAAAAAAAAAAAAAAAAAAAAAAAAAAAAAAAAAAAAAAAAAAAAAAAAAAAAAAAAAAAAAAAAAAAAAAAAAAAAAAAAAAAAAAAAAAAAAAAAAAAAAAAAAAAAAAAAAAAAAAAAAAAAAAAAAAAAAAAAAAAAAAAAAAAAAAAAAAAAAAAAAAAAAAAAAAAAAAAAAAAAAAAAAAAAAAAAAAAAAAAAAAAAAAAAAAAAAAAAAAAAAAAAAAAAAAAAAAAAAAAAAAAAAAAAAAAAAAAAAAAAAAAAAAAAAAAAAAAAAAAAAAAAAAAAAAAAAAAAAAAAAAAAAAAAAAAAAAAAAAAAAAAAAAAAAAAAAAAAAAAAAAAAAAAAAAAAAAAAAAAAAAAAAAAAAAAAAAAAAAAAAAAAAAAAAAAAAAAAAAAAAAAAAAAAAAAAAAAAAAAAAAAAAAAAAAAAAAAAAAAAAAAAAAAAAAAAAAAAAAAAAAAAAAAAAAAAAAAAAAAAAAAAAAAAAAAAAAAAAAAAAAAAAAAAAAAAAAAAAAAAAAAAAAAAAAAAAAAAAAAAAAAAAAAAAAAAAAAAAAAAAAAAAAAAAAAAAAAAAAAAAAAAAAAAAAAAAAAAAAAAAAAAAAAAAAAAAAAAAAAAAAAAAAAAAAAAAAAAAAAAAAAAAAAAAAAAAAAAAAAAAAAAAAAAAAAAAAAAAAAAAAAAAAAAAAAAAAAAAAAAAAAAAAAAAAAAAAAAAAAAAAAAAAAAAAAAAAAAAAAAAAAAAAAAAAAAAAAAAAAAAAAAAAAAAAAAAAAAAAAAAAAAAAAAAAAAAAAAAAAAAAAAAAAAAAAAAAAAAAAAAAAAAAAAAAAAAAAAAAAAAAAAAAAAAAAAAAAAAAAAAAAAAAAAAAAAAAAAAAAAAAAAAAAAAAAAAAAAAAAAAAAAAAAAAAAAAAAAAAAAAAAAAAAAAAAAAAAAAAAAAAAAAAAAAAAAAAAAAAAAAAAAAAAAAAAAAAAAAAAAAAAAAAAAAAAAAAAAAAAAAAAAAAAAAAAAAAAAAAAAAAAAAAAAAAAAAAAAAAAAAAAAAAAAAAAAAAAAAAAAAAAAAAAAAAAAAAAAAAAAAAAAAAAAAAAAAAAAAAAAAAAAAAAAAAAAAAAAAAAPZYQFKcPVEcJUwKDRFwOK0Po6Qdye9VRY1fLwhENzsEz31ea+EWJLOcRWy03weNa6EahDvmpZnRhzx340/0MMbawr0=</c2pa:manifest></metadata>
  <defs>
    <marker id="arrow" viewBox="0 0 10 10" refX="8" refY="5" markerWidth="7" markerHeight="7" orient="auto-start-reverse">
    <path d="M0,0 L10,5 L0,10 z" fill="#7A553A"/>
  </marker>
    
  </defs>
  <rect x="0" y="0" width="1120" height="520" fill="#E6D6C1"/>

<text x="560.0" y="32" font-family="Segoe UI, -apple-system, Helvetica, Arial, sans-serif" font-size="17" font-weight="700" fill="#7A553A" text-anchor="middle" >O MESMO PEDIDO, COM E SEM ÍNDICE</text>
<rect x="30" y="60" width="500" height="430" rx="12" fill="#F3E9D7" stroke="#7A553A" stroke-width="2"/>
<text x="280" y="92" font-family="Segoe UI, -apple-system, Helvetica, Arial, sans-serif" font-size="14" font-weight="700" fill="#7A553A" text-anchor="middle" >SEM ÍNDICE: VARREDURA SEQUENCIAL</text>
<text x="280" y="130" font-family="Segoe UI, -apple-system, Helvetica, Arial, sans-serif" font-size="13" font-weight="600" fill="#7A553A" text-anchor="middle" >o banco precisa olhar linha por linha,</text>
<text x="280" y="150" font-family="Segoe UI, -apple-system, Helvetica, Arial, sans-serif" font-size="13" font-weight="600" fill="#7A553A" text-anchor="middle" >da primeira até a última</text>
<rect x="113.0" y="225" width="28" height="28" rx="4" fill="#D6BFA6" stroke="#7A553A" stroke-width="1.2"/>
<rect x="147.0" y="225" width="28" height="28" rx="4" fill="#D6BFA6" stroke="#7A553A" stroke-width="1.2"/>
<rect x="181.0" y="225" width="28" height="28" rx="4" fill="#D6BFA6" stroke="#7A553A" stroke-width="1.2"/>
<rect x="215.0" y="225" width="28" height="28" rx="4" fill="#D6BFA6" stroke="#7A553A" stroke-width="1.2"/>
<rect x="249.0" y="225" width="28" height="28" rx="4" fill="#D6BFA6" stroke="#7A553A" stroke-width="1.2"/>
<rect x="283.0" y="225" width="28" height="28" rx="4" fill="#D6BFA6" stroke="#7A553A" stroke-width="1.2"/>
<rect x="317.0" y="225" width="28" height="28" rx="4" fill="#D6BFA6" stroke="#7A553A" stroke-width="1.2"/>
<rect x="351.0" y="225" width="28" height="28" rx="4" fill="#D6BFA6" stroke="#7A553A" stroke-width="1.2"/>
<rect x="385.0" y="225" width="28" height="28" rx="4" fill="#D6BFA6" stroke="#7A553A" stroke-width="1.2"/>
<rect x="419.0" y="225" width="28" height="28" rx="4" fill="#D6BFA6" stroke="#7A553A" stroke-width="1.2"/>
<rect x="113.0" y="259" width="28" height="28" rx="4" fill="#D6BFA6" stroke="#7A553A" stroke-width="1.2"/>
<rect x="147.0" y="259" width="28" height="28" rx="4" fill="#D6BFA6" stroke="#7A553A" stroke-width="1.2"/>
<rect x="181.0" y="259" width="28" height="28" rx="4" fill="#7A553A" stroke="#7A553A" stroke-width="1.2"/>
<rect x="215.0" y="259" width="28" height="28" rx="4" fill="#D6BFA6" stroke="#7A553A" stroke-width="1.2"/>
<rect x="249.0" y="259" width="28" height="28" rx="4" fill="#D6BFA6" stroke="#7A553A" stroke-width="1.2"/>
<rect x="283.0" y="259" width="28" height="28" rx="4" fill="#D6BFA6" stroke="#7A553A" stroke-width="1.2"/>
<rect x="317.0" y="259" width="28" height="28" rx="4" fill="#D6BFA6" stroke="#7A553A" stroke-width="1.2"/>
<rect x="351.0" y="259" width="28" height="28" rx="4" fill="#D6BFA6" stroke="#7A553A" stroke-width="1.2"/>
<rect x="385.0" y="259" width="28" height="28" rx="4" fill="#D6BFA6" stroke="#7A553A" stroke-width="1.2"/>
<rect x="419.0" y="259" width="28" height="28" rx="4" fill="#D6BFA6" stroke="#7A553A" stroke-width="1.2"/>
<rect x="113.0" y="293" width="28" height="28" rx="4" fill="#D6BFA6" stroke="#7A553A" stroke-width="1.2"/>
<rect x="147.0" y="293" width="28" height="28" rx="4" fill="#D6BFA6" stroke="#7A553A" stroke-width="1.2"/>
<rect x="181.0" y="293" width="28" height="28" rx="4" fill="#D6BFA6" stroke="#7A553A" stroke-width="1.2"/>
<rect x="215.0" y="293" width="28" height="28" rx="4" fill="#D6BFA6" stroke="#7A553A" stroke-width="1.2"/>
<rect x="249.0" y="293" width="28" height="28" rx="4" fill="#D6BFA6" stroke="#7A553A" stroke-width="1.2"/>
<rect x="283.0" y="293" width="28" height="28" rx="4" fill="#D6BFA6" stroke="#7A553A" stroke-width="1.2"/>
<rect x="317.0" y="293" width="28" height="28" rx="4" fill="#D6BFA6" stroke="#7A553A" stroke-width="1.2"/>
<rect x="351.0" y="293" width="28" height="28" rx="4" fill="#D6BFA6" stroke="#7A553A" stroke-width="1.2"/>
<rect x="385.0" y="293" width="28" height="28" rx="4" fill="#D6BFA6" stroke="#7A553A" stroke-width="1.2"/>
<rect x="419.0" y="293" width="28" height="28" rx="4" fill="#D6BFA6" stroke="#7A553A" stroke-width="1.2"/>
<rect x="113.0" y="327" width="28" height="28" rx="4" fill="#D6BFA6" stroke="#7A553A" stroke-width="1.2"/>
<rect x="147.0" y="327" width="28" height="28" rx="4" fill="#D6BFA6" stroke="#7A553A" stroke-width="1.2"/>
<rect x="181.0" y="327" width="28" height="28" rx="4" fill="#D6BFA6" stroke="#7A553A" stroke-width="1.2"/>
<rect x="215.0" y="327" width="28" height="28" rx="4" fill="#D6BFA6" stroke="#7A553A" stroke-width="1.2"/>
<rect x="249.0" y="327" width="28" height="28" rx="4" fill="#D6BFA6" stroke="#7A553A" stroke-width="1.2"/>
<rect x="283.0" y="327" width="28" height="28" rx="4" fill="#D6BFA6" stroke="#7A553A" stroke-width="1.2"/>
<rect x="317.0" y="327" width="28" height="28" rx="4" fill="#D6BFA6" stroke="#7A553A" stroke-width="1.2"/>
<rect x="351.0" y="327" width="28" height="28" rx="4" fill="#7A553A" stroke="#7A553A" stroke-width="1.2"/>
<rect x="385.0" y="327" width="28" height="28" rx="4" fill="#D6BFA6" stroke="#7A553A" stroke-width="1.2"/>
<rect x="419.0" y="327" width="28" height="28" rx="4" fill="#D6BFA6" stroke="#7A553A" stroke-width="1.2"/>
<rect x="113.0" y="361" width="28" height="28" rx="4" fill="#D6BFA6" stroke="#7A553A" stroke-width="1.2"/>
<rect x="147.0" y="361" width="28" height="28" rx="4" fill="#D6BFA6" stroke="#7A553A" stroke-width="1.2"/>
<rect x="181.0" y="361" width="28" height="28" rx="4" fill="#D6BFA6" stroke="#7A553A" stroke-width="1.2"/>
<rect x="215.0" y="361" width="28" height="28" rx="4" fill="#D6BFA6" stroke="#7A553A" stroke-width="1.2"/>
<rect x="249.0" y="361" width="28" height="28" rx="4" fill="#7A553A" stroke="#7A553A" stroke-width="1.2"/>
<rect x="283.0" y="361" width="28" height="28" rx="4" fill="#D6BFA6" stroke="#7A553A" stroke-width="1.2"/>
<rect x="317.0" y="361" width="28" height="28" rx="4" fill="#D6BFA6" stroke="#7A553A" stroke-width="1.2"/>
<rect x="351.0" y="361" width="28" height="28" rx="4" fill="#D6BFA6" stroke="#7A553A" stroke-width="1.2"/>
<rect x="385.0" y="361" width="28" height="28" rx="4" fill="#D6BFA6" stroke="#7A553A" stroke-width="1.2"/>
<rect x="419.0" y="361" width="28" height="28" rx="4" fill="#D6BFA6" stroke="#7A553A" stroke-width="1.2"/>
<text x="280" y="428" font-family="Segoe UI, -apple-system, Helvetica, Arial, sans-serif" font-size="26" font-weight="700" fill="#3B2A22" text-anchor="middle" >35 ms</text>
<text x="280" y="452" font-family="Segoe UI, -apple-system, Helvetica, Arial, sans-serif" font-size="13" font-weight="600" fill="#7A553A" text-anchor="middle" >300 mil linhas lidas para achar 60</text>
<text x="280" y="474" font-family="Segoe UI, -apple-system, Helvetica, Arial, sans-serif" font-size="11" font-weight="600" fill="#7A553A" text-anchor="middle" >(medido no laboratório do módulo)</text>
<rect x="590" y="60" width="500" height="430" rx="12" fill="#F3E9D7" stroke="#7A553A" stroke-width="2"/>
<text x="840" y="92" font-family="Segoe UI, -apple-system, Helvetica, Arial, sans-serif" font-size="14" font-weight="700" fill="#7A553A" text-anchor="middle" >COM ÍNDICE: BUSCA DIRETA</text>
<rect x="780" y="108" width="120" height="32" rx="8" fill="#B08968" stroke="#7A553A" stroke-width="2"/>
<text x="840" y="129" font-family="Segoe UI, -apple-system, Helvetica, Arial, sans-serif" font-size="13" font-weight="700" fill="#3B2A22" text-anchor="middle" >índice</text>
<rect x="665" y="160" width="110" height="30" rx="8" fill="#D6BFA6" stroke="#7A553A" stroke-width="2"/>
<text x="720" y="180" font-family="Segoe UI, -apple-system, Helvetica, Arial, sans-serif" font-size="12" font-weight="700" fill="#3B2A22" text-anchor="middle" >1 a 1700</text>
<line x1="840" y1="140" x2="720" y2="160" stroke="#7A553A" stroke-width="2"/>
<rect x="785" y="160" width="110" height="30" rx="8" fill="#D6BFA6" stroke="#7A553A" stroke-width="2"/>
<text x="840" y="180" font-family="Segoe UI, -apple-system, Helvetica, Arial, sans-serif" font-size="12" font-weight="700" fill="#3B2A22" text-anchor="middle" >1701 a 3400</text>
<line x1="840" y1="140" x2="840" y2="160" stroke="#7A553A" stroke-width="2"/>
<rect x="905" y="160" width="110" height="30" rx="8" fill="#D6BFA6" stroke="#7A553A" stroke-width="2"/>
<text x="960" y="180" font-family="Segoe UI, -apple-system, Helvetica, Arial, sans-serif" font-size="12" font-weight="700" fill="#3B2A22" text-anchor="middle" >3401 a 5000</text>
<line x1="840" y1="140" x2="960" y2="160" stroke="#7A553A" stroke-width="2"/>
<rect x="673.0" y="225" width="28" height="28" rx="4" fill="#F3E9D7" stroke="#7A553A" stroke-width="1.2"/>
<rect x="707.0" y="225" width="28" height="28" rx="4" fill="#F3E9D7" stroke="#7A553A" stroke-width="1.2"/>
<rect x="741.0" y="225" width="28" height="28" rx="4" fill="#F3E9D7" stroke="#7A553A" stroke-width="1.2"/>
<rect x="775.0" y="225" width="28" height="28" rx="4" fill="#F3E9D7" stroke="#7A553A" stroke-width="1.2"/>
<rect x="809.0" y="225" width="28" height="28" rx="4" fill="#F3E9D7" stroke="#7A553A" stroke-width="1.2"/>
<rect x="843.0" y="225" width="28" height="28" rx="4" fill="#F3E9D7" stroke="#7A553A" stroke-width="1.2"/>
<rect x="877.0" y="225" width="28" height="28" rx="4" fill="#F3E9D7" stroke="#7A553A" stroke-width="1.2"/>
<rect x="911.0" y="225" width="28" height="28" rx="4" fill="#F3E9D7" stroke="#7A553A" stroke-width="1.2"/>
<rect x="945.0" y="225" width="28" height="28" rx="4" fill="#F3E9D7" stroke="#7A553A" stroke-width="1.2"/>
<rect x="979.0" y="225" width="28" height="28" rx="4" fill="#F3E9D7" stroke="#7A553A" stroke-width="1.2"/>
<rect x="673.0" y="259" width="28" height="28" rx="4" fill="#F3E9D7" stroke="#7A553A" stroke-width="1.2"/>
<rect x="707.0" y="259" width="28" height="28" rx="4" fill="#F3E9D7" stroke="#7A553A" stroke-width="1.2"/>
<rect x="741.0" y="259" width="28" height="28" rx="4" fill="#7A553A" stroke="#7A553A" stroke-width="1.2"/>
<rect x="775.0" y="259" width="28" height="28" rx="4" fill="#F3E9D7" stroke="#7A553A" stroke-width="1.2"/>
<rect x="809.0" y="259" width="28" height="28" rx="4" fill="#F3E9D7" stroke="#7A553A" stroke-width="1.2"/>
<rect x="843.0" y="259" width="28" height="28" rx="4" fill="#F3E9D7" stroke="#7A553A" stroke-width="1.2"/>
<rect x="877.0" y="259" width="28" height="28" rx="4" fill="#F3E9D7" stroke="#7A553A" stroke-width="1.2"/>
<rect x="911.0" y="259" width="28" height="28" rx="4" fill="#F3E9D7" stroke="#7A553A" stroke-width="1.2"/>
<rect x="945.0" y="259" width="28" height="28" rx="4" fill="#F3E9D7" stroke="#7A553A" stroke-width="1.2"/>
<rect x="979.0" y="259" width="28" height="28" rx="4" fill="#F3E9D7" stroke="#7A553A" stroke-width="1.2"/>
<rect x="673.0" y="293" width="28" height="28" rx="4" fill="#F3E9D7" stroke="#7A553A" stroke-width="1.2"/>
<rect x="707.0" y="293" width="28" height="28" rx="4" fill="#F3E9D7" stroke="#7A553A" stroke-width="1.2"/>
<rect x="741.0" y="293" width="28" height="28" rx="4" fill="#F3E9D7" stroke="#7A553A" stroke-width="1.2"/>
<rect x="775.0" y="293" width="28" height="28" rx="4" fill="#F3E9D7" stroke="#7A553A" stroke-width="1.2"/>
<rect x="809.0" y="293" width="28" height="28" rx="4" fill="#F3E9D7" stroke="#7A553A" stroke-width="1.2"/>
<rect x="843.0" y="293" width="28" height="28" rx="4" fill="#F3E9D7" stroke="#7A553A" stroke-width="1.2"/>
<rect x="877.0" y="293" width="28" height="28" rx="4" fill="#F3E9D7" stroke="#7A553A" stroke-width="1.2"/>
<rect x="911.0" y="293" width="28" height="28" rx="4" fill="#F3E9D7" stroke="#7A553A" stroke-width="1.2"/>
<rect x="945.0" y="293" width="28" height="28" rx="4" fill="#F3E9D7" stroke="#7A553A" stroke-width="1.2"/>
<rect x="979.0" y="293" width="28" height="28" rx="4" fill="#F3E9D7" stroke="#7A553A" stroke-width="1.2"/>
<rect x="673.0" y="327" width="28" height="28" rx="4" fill="#F3E9D7" stroke="#7A553A" stroke-width="1.2"/>
<rect x="707.0" y="327" width="28" height="28" rx="4" fill="#F3E9D7" stroke="#7A553A" stroke-width="1.2"/>
<rect x="741.0" y="327" width="28" height="28" rx="4" fill="#F3E9D7" stroke="#7A553A" stroke-width="1.2"/>
<rect x="775.0" y="327" width="28" height="28" rx="4" fill="#F3E9D7" stroke="#7A553A" stroke-width="1.2"/>
<rect x="809.0" y="327" width="28" height="28" rx="4" fill="#F3E9D7" stroke="#7A553A" stroke-width="1.2"/>
<rect x="843.0" y="327" width="28" height="28" rx="4" fill="#F3E9D7" stroke="#7A553A" stroke-width="1.2"/>
<rect x="877.0" y="327" width="28" height="28" rx="4" fill="#F3E9D7" stroke="#7A553A" stroke-width="1.2"/>
<rect x="911.0" y="327" width="28" height="28" rx="4" fill="#7A553A" stroke="#7A553A" stroke-width="1.2"/>
<rect x="945.0" y="327" width="28" height="28" rx="4" fill="#F3E9D7" stroke="#7A553A" stroke-width="1.2"/>
<rect x="979.0" y="327" width="28" height="28" rx="4" fill="#F3E9D7" stroke="#7A553A" stroke-width="1.2"/>
<rect x="673.0" y="361" width="28" height="28" rx="4" fill="#F3E9D7" stroke="#7A553A" stroke-width="1.2"/>
<rect x="707.0" y="361" width="28" height="28" rx="4" fill="#F3E9D7" stroke="#7A553A" stroke-width="1.2"/>
<rect x="741.0" y="361" width="28" height="28" rx="4" fill="#F3E9D7" stroke="#7A553A" stroke-width="1.2"/>
<rect x="775.0" y="361" width="28" height="28" rx="4" fill="#F3E9D7" stroke="#7A553A" stroke-width="1.2"/>
<rect x="809.0" y="361" width="28" height="28" rx="4" fill="#7A553A" stroke="#7A553A" stroke-width="1.2"/>
<rect x="843.0" y="361" width="28" height="28" rx="4" fill="#F3E9D7" stroke="#7A553A" stroke-width="1.2"/>
<rect x="877.0" y="361" width="28" height="28" rx="4" fill="#F3E9D7" stroke="#7A553A" stroke-width="1.2"/>
<rect x="911.0" y="361" width="28" height="28" rx="4" fill="#F3E9D7" stroke="#7A553A" stroke-width="1.2"/>
<rect x="945.0" y="361" width="28" height="28" rx="4" fill="#F3E9D7" stroke="#7A553A" stroke-width="1.2"/>
<rect x="979.0" y="361" width="28" height="28" rx="4" fill="#F3E9D7" stroke="#7A553A" stroke-width="1.2"/>
<line x1="720" y1="190" x2="823.0" y2="359" stroke="#7A553A" stroke-width="1.8" marker-end="url(#arrow)"/>
<line x1="720" y1="190" x2="925.0" y2="325" stroke="#7A553A" stroke-width="1.8" marker-end="url(#arrow)"/>
<line x1="720" y1="190" x2="755.0" y2="257" stroke="#7A553A" stroke-width="1.8" marker-end="url(#arrow)"/>
<text x="840" y="428" font-family="Segoe UI, -apple-system, Helvetica, Arial, sans-serif" font-size="26" font-weight="700" fill="#3B2A22" text-anchor="middle" >0,14 ms</text>
<text x="840" y="452" font-family="Segoe UI, -apple-system, Helvetica, Arial, sans-serif" font-size="13" font-weight="600" fill="#7A553A" text-anchor="middle" >vai direto às 60 linhas certas, sem ler as outras</text>
<text x="840" y="474" font-family="Segoe UI, -apple-system, Helvetica, Arial, sans-serif" font-size="11" font-weight="600" fill="#7A553A" text-anchor="middle" >(medido no laboratório do módulo)</text>
</svg>